<svg xmlns="http://www.w3.org/2000/svg" width="262" height="252" viewBox="0 0 262 252">
    <g fill="none" fill-rule="evenodd" stroke="#000" stroke-linejoin="round">
        <path d="M211.132 21.838l-.468 5.038.416 1.643.962 1.26 1.196 1.013.208 1.615-.546 1.561-.936 1.561-2.34 2.656.494 3.916-.91 8.735.546 2.601-.104 1.123-1.274 3.067-.104 1.013.572.219.728-.137.884.356.624.849.416.903.104.959-2.158 3.203-.884 1.917-.572.74-.442.848-.104 2.19.13 2.191-.65 1.78-1.326 1.205L200.498 78l-1.222 1.588-.286 2.081.156 2.163-.208.904-.52.794-.65.63-.832.274.286 2.272-1.586 3.067-.026 1.15.442 1.123.702.986.832.684.936.438.806.63 1.482 2.793 1.56 1.15 3.484.22 2.756-2.3 2.21-3.451 1.222-1.232 1.586-.438 1.742-.22 1.56-.82.598-.795.39-.931.52-.465.806-.055 1.274-1.37 1.144-1.642 1.794-.466 1.872.301 1.482.767 1.222 1.26 1.248.958 1.482.383 1.092-.711.754-3.478 1.144-3.478.286-1.807-.026-1.78.182-1.478.728-.11 1.248.603.702.11 3.146-.822 1.274-.11.156-.41-.156-.986.65-1.315.832-.575 1.118-2.519.702-1.095.806-.986.832-.794h.676l.858.301 1.508.767.468.082 1.326-.767.572-.739 1.014-.301 1.924-2.109.39-.273 1.274-.466 1.69-1.479 1.482-.739.26-.465.442-1.808v-.657l-.39-.958-1.456-1.424-.026-.22.858-1.478.156-.438.442-2.629.234-.821.026-1.342-.442-1.122-.026-.52.312-.576.364-1.862.702-1.122-.416-.685-.754.383-1.066-1.26-.442-.355-.78-1.479.104-.383-.676-.63-1.378-.41-4.472-.165-.624-.274-.208-.41.104-1.589-.208-2.574-2.6-13.828L237.34 5.573l-5.356-.247-.858.302.026.438-.338.274-1.092 1.45.078.658-.572.41.338.192-.39.575-1.664.685.052-.685-.208-.054-.78.493-.416.027-.13-.52-1.144.3-1.924 1.15-.598.138-.624-.164-.078.41-.806-.246.624.74-.286.273-.65 1.15-.208-.027-.234.903-.832.192-.546.794-1.092.602-.676.658-.624-.63-.52.93-.078-.136-.884.958-.468 1.287.338.165-.234.848-.832.384-.364 1.807-.286.164-1.274-.356zM105.624 205.299l-1.066.055-1.014.191-.078-.082-.13-.137-1.456.931-1.014 1.534.468.465 1.092.685.624.164.832.876.286 2.903-.208 1.205-.182.356.39 1.177.104 2.136-.156.602-.754 1.862-.832 1.123-1.56 5.476.442.959-.13 1.26-2.21 4.107.286 1.999.884.328 1.794-.438h.858l.832.383 1.144.028 1.456 1.177-.156-1.068-.494-1.04.208-.904-.286-1.26.468-.93.702-.85.13-1.177-.13-1.204.078-1.123.312-1.616-.286-.985.052-.52.962-.33 1.118.192.624-.492.13-.493-.208-.493-.546-.192.026-.356.52-1.424-.13-1.78.572-.492.832.164 1.066.903.754 1.37 1.222.794 1.144 1.068 1.04.219.26-.904-1.066-2.41-.494-2.738.182-1.451-.364-1.178-.806-.356-.728-.63-.338-.793-.182-.904-1.17-.657-3.146-.055-1.3-.767.182-1.67-.026-1.506z"/>
        <path d="M113.866 221.318l-1.222-.794-.754-1.37-1.066-.903-.832-.164-.572.492.13 1.78-.52 1.424-.026.356.546.192.208.493-.13.493-.624.492-1.118-.191-.962.328-.052.52.286.986-.312 1.616-.078 1.123.13 1.204-.13 1.178-.702.849-.468.93.286 1.26-.208.904.494 1.04.156 1.068.26.657.39.712.208.986-.026.63.364-.22-.39 1.206-.052.657.312.465.312 2.492 1.924.164.598.439 1.326.082.468-.137-.572-.466.754.082 3.718-.52 1.378-.055.728-.465 1.326.164h1.846l1.248.165 1.378-.165.286-.794.962-1.095-.052-.603-.676-.438-.078-.383.286-.958-.286-.438-.312-1.123-.13-.137-1.092-.794-2.574-3.176-.78-1.315-.598-1.287-.312-1.451.156-3.176-.364-.493-.962-.74-.572-.164-1.274.247-1.04-1.972.598-.821zM102.53 221.345l.832-1.123.754-1.862.156-.602-.104-2.136-.39-1.177.182-.356.208-1.205-.286-2.903-.832-.876-.624-.164-1.092-.685-.468-.465-.884.219-.91.356-1.95-.493-1.014.137-.988.274-.806.602-.286 1.095-.858 2.081-.858.302-.936-.493-1.69.575-1.456 1.369-.234.904-.676 4.107.156.575.78.055.78-.22.91 1.123-.182 1.835-.312.849.026.903.884 1.096 2.314 1.752 3.068.274 2.73-.329 1.144.384.702-.082.65-.22z"/>
        <path d="M105.39 245.524l-1.04-.603-1.04.383-.286.959.312.192 1.612.11 3.016-.63.312-.658-.234-.082-2.652.329zm-4.212-.575l-.65-.931-1.066 2.163-.702.876-.208.493.208.301.754.082 1.924-.465.806-.63.26-1.862-.988.11-.338-.137zM88.23 213.815l-.702-.055-.65-.684-.572 3.012-.416 1.177-.286 1.588-.156.301-1.378 1.37.364 1.122 2.028.22.754 1.15-.416.711-.416.11-.26.712-.728 1.068-1.014.985-.286.85-.13 1.177-.182.547-.39.247-.364 1.424v.547l.468 1.068-1.118 2.218-.234.876v1.068l.494.794.806.52-.104.494.234.794.676-.083 1.794-.794 1.352 1.014.182.93.338.85.624.547.702.383.26.439.286-.439-.546 4.026.208.191-.104 2.355.494.329 2.366-.137.52-.356-.728-.822.052-.602-.52-1.177-.442-2.547.65-1.095-.416-.822-.754-.794-.364-2.355-.624-.794-.26-1.287h.754l.312.712.52-.055-.442 1.014.39 2.245.39.876.988.931-.598 1.37.286 1.97.338.685.364.22-.156.437.468 1.178.494-.22.962.412 1.3.164.208-.11-.104-.903-.78-1.835-.052-.602.208-1.808-1.04-.711-.624-1.287-.156-.767.884 1.287 1.066.684-.494-1.56-.208-1.233.104-.41.494 1.013.416-.657.468 2.135-.26 1.233-.234.191.468 1.15.182 1.972 1.014.438-.234-.383-.052-.904.286-.301.052.876.286.301.416-.328.442.219.364-.192.624-.794.13-.466-.806-1.067.546-.329-.078-.849-.494-.903-1.274-.931-.234-.904-.39-.247.26-.985.754 1.862.39.383.728.247.312-.165.39 1.479 1.404 1.807.598.986.962-.192.052-.63-.598-.137-.65-.492.208-1.068.39-.028 1.04.575 1.118.165.754.492.468.055.208-.547.598.191.442-.356.364-.766-.234-1.835.234-.465.13-.11.026-.63-.208-.986-.39-.712-.26-.657-1.456-1.177-1.144-.028-.832-.383h-.858l-1.794.438-.884-.328-.286-2 2.21-4.107.13-1.26-.442-.958-.65.22-.702.082-1.144-.384-2.73.329-3.068-.274-2.314-1.752-.884-1.096-.026-.903.312-.85.182-1.834-.91-1.122-.78.219-.78-.055-.156-.575.676-4.107.234-.904z"/>
        <path d="M89.504 242.512l-.26-.439-.702-.383-.624-.548-.338-.848-.182-.931-1.352-1.014-1.794.794-.676.083-.234-.794.104-.493-.806-.52-.494-.795v-1.068l.234-.876 1.118-2.218-.468-1.068v-.547l.364-1.424.39-.247.182-.547.13-1.178.286-.849 1.014-.985.728-1.068.26-.712.416-.11.416-.712-.754-1.15-2.028-.219.052.575-.338.247-2.834.493-.338.136-.988 1.917-1.3.11-.416.191.026 1.78-3.484 2.054-1.482-.63-.754-.794-.286.164-.702 1.205-.598.384-1.066.054-1.222.52-1.534 1.123-1.248-.027-1.534-1.123-.988-.383-1.43-1.232.338 1.013-.676-.85-.91-.41-.286.849.936 2.574.182 1.232.624 2 .702.93.182.63-.52-.22.91 2.054.962.685v.493l-.312-.164.208 1.095.624 1.013 2.028 2.245 1.352 1.698.858.383-.156.356.884.603.936-.11-.208.657.26.63 1.716 1.37.338.027.156-.712-.312-.904.702-.082.364 1.04-.156 1.041.676.164.754.466.052-.575-.39-.986.182-1.698.728.247-.078 1.095.442-.164-.364.986-.026 1.26.546.437.312-.356.546.165.806-.055.728-.493h-.598v-.356l.442-.356.338-1.56-.624-1.452.39.11.65.766-.182-.465-.13-1.835h.156l.338 1.26.104 1.396 1.508-1.068-1.404 1.917-.442 1.123.52.712.416-.192 1.014-.027 1.716-.548-.182-.493.598-.164.598.493 1.248.137 1.092-.302.052-.876.286-.986.078-1.068-.234-.903-.598-.575.65-.082.338.657.13 2.957.364.986 1.664-.438v-.301l-.754-2.383-.156-1.588.442-.547.13.328.13 1.944.208.575.156-1.04-.156-.876.13-1.178.338-1.095zM138.254 152.424l-.78.219-2.392-.082-1.586-.41-4.394-1.753-2.86.41-1.222 1.205-.338 1.835.52 1.862 1.04 2.683.13.904-.26.438-.676-.301-.546-.493-1.014-.657-.494-.657-2.028-.548-1.768-.959-1.82-.383-1.456-.93-.754-.247-1.534-.22-1.794-.63-1.404-.163-1.092-.329-.13 1.479.078 1.369.26 1.314.65 1.15.65.767.442.93.078.932-.026 3.012.338 3.094.26 1.013.702.466.832-.137.546.438-.676 1.67-.052.85-.364 2.08-.91 1.78-2.886 1.862-.338 1.04-.052 1.178-.598.219-.702-.383-.936-.904-.832-.493.234 1.04.832 2.082.624.876.728.821.806.712.832.466.884-.137.624-.575.78-.22.91.521.546 1.013.26 1.26v1.26l-.754 2.436.728 1.78 1.508 1.096.936-1.534.208-2.19.338-.877 1.794-.137.832-.246.806-1.287.988-.11.78-.657.234.438.442 1.862.52.685.702-.082.65-.438.598-.74.624-.575 1.742.165.962-.028.91-.274.728-.465.364-.74-.208-.985.286-.822 1.404-.657 1.482.165 1.586.657 2.6 1.834.546 1.342-.208 1.56.442.412.572.164 1.248-.027 3.432-.767 1.924 1.15 2.626 3.642 1.04 2.19.884-.383.78-.657.494-1.15.338-.329.624-.164h.286l.494-2.52.234-4.38-.078-1.643.676-4.519.65-1.506.884-1.314 1.092-.93.962-1.069.13-3.067.832-3.094-.988-3.012-2.236-2.382-1.95-2.875-2.496-2.027-3.302-.465-3.354.11-.858.219-1.456.766-.702.192-.26-.575 1.196-2.136z"/>
        <path d="M123.486 188.322l.312 1.424.832 1.123.754.766.442.767.338 1.533.468.685.078.821-1.352.904-.156.876.416.767-.182 1.752-1.222 1.48-.91 1.56-.39 1.944-.364.685-.624-.329h-.572l-.624 1.068-1.014.548-.39.465-.546.027-.442-1.177-.806-.274-.884.329-.26.657.364.821-.26 1.15-.78 1.397-.286.356.052 1.232-.832 1.588-.078.657.364 1.178-.182 1.451.494 2.738 1.066 2.41-.26.904-1.04-.22-.598.822 1.04 1.972 1.274-.247.572.164.962.74.364.493-.156 3.176.312 1.451.598 1.287.78 1.315 2.574 3.176 1.092.794-.104-.082-.208-.165-.624-1.095.364-.301-.078-.602-.884-1.67-1.196-1.37v-.137l1.404 1.205.234.548 1.274 1.341.078.63.442.301v.411l.572.603.624.027.494-.438v1.67l1.638.028-.338.93 1.092.22.338-1.67.728-1.452.52.082.442-.301-.234-1.287.78-.904.13-.492 1.17-2.136 1.092-2.766.936-.602.156-.329.572-3.532-.234-1.26.754-2.3-.13-1.56.13-.548 1.066-1.506.078-.603-.208-.712-1.352-1.451-.286-.657.936-1.287.078-.657-.468-1.397.234-.41.78-.63.65-.85 1.326.22.078-.329 3.25-4.792 2.964-2.847.546-.931.624-1.561.598-.603.858-.027.624-.438.65-1.533.624-.466.13-.055-1.04-2.19-2.626-3.642-1.924-1.15-3.432.767-1.248.027-.572-.164-.442-.411.208-1.56-.546-1.343-2.6-1.834-1.586-.657-1.482-.165-1.404.657-.286.822.208.986-.364.739-.728.465-.91.274-.962.028-1.742-.165-.624.575-.598.74-.65.438zM181.908 112.637l-1.508-.438-1.43.302-2.678 1.478-2.73.11-1.17.876.468 1.26.182 1.369-.156 1.67.234 1.944.208.767.338.712.65 2.464-.13 1.56.286 1.616.026.986-.728 1.67-3.432 2.027-5.018 1.451-1.04 1.479-.494.93-1.118 1.644-.598.63-1.56 1.013-1.43 1.232-1.248 1.506-1.404 1.287-1.56.52-1.638.137-1.17-.082-.598 1.123-.884.657-.598.054-1.898-.465-1.586-.767-.52.274-.676 2.054 1.17 1.725.078 1.342.208 1.615-.442.466-3.146 2.519-.754.74-1.196 2.135.26.575.702-.192 1.456-.766.858-.22 3.354-.109 3.302.465 2.496 2.027 1.95 2.875 2.236 2.382.988 3.012-.832 3.094-.13 3.067-.962 1.068-1.092.931-.884 1.314-.65 1.506-.676 4.519.078 1.642-.234 4.382-.494 2.519h.754l1.924-6.572.416-.548 1.352.439.52-.247 5.278-5.367.52-.356.494.493.312 1.917.676.93.624.22 5.59-.082.286-1.342.598-.685.13-1.998.754-2.657.416.63.104 1.26 2.496 1.56 1.794.822.728.575.364 1.013.208 1.205.442 1.123.676.821 2.054.466.728.684.442 1.04.104 3.287.39 1.999.416 1.26.364.383.598.11 3.172-.357.468.137 1.352-.465.416-.466.26-1.67.312-.877.572-.547.858-.11.598-.383.494-.849.624-1.752.208-1.397-.13-.493-.624-1.013.13-.712.39-.657 1.326-1.451 2.054-1.616.494-.082.546-.931.91-1.013.546-.274.624.192.416-.685-.286-.657-.858-1.095-1.092-1.862-.936-.575.988-1.096 1.326-2.382 1.274-1.478-.286-1.342-.546-1.37-.286-1.752v-1.725l-1.066-2.985-2.132-2.382-.546-.766-.78-.411-.676.356-1.482 2.08-.702-.081-.598-.712-.884-1.862-.962-2.766.182-.821 1.196-1.67 1.404-1.507 5.564-7.995 1.456-1.424.182-.849-.104-.958.156-1.808 2.132-5.34-.156-1.806-.91-1.342-1.378-.767-.754-1.533.078-1.807-.234-.795-.39-.766-.78-1.89-1.248-1.341-1.456-.411-.546-.575-2.028-4.463-7.618.356-2.314-.22zM76.92 135.173l-1.482-1.013-2.366.027-1.222.493-1.56-.11-1.144.028-1.222-1.807-.832-.301-1.274-.028-.338-.137-.936-1.369-.468-.493-1.3-.93-1.222-.275-1.144-1.095-1.768.028-2.652-.74-.312-1.478-1.04-1.315-1.144-.657-1.144-.93-1.118-.384-1.404.547-.988.63-.858.329-.676.055-.598-.247-.416-.493.052-2.245-.26-.52-2.392-.931-.182-.384-.234-2.519-1.898-.328-1.586.246-.728-1.451.026-1.944.208-2.082-.364-1.752-.728-.027-.676-.548-7.332-10.214-.624-.602-1.482-.246-3.458.136-2.028.439v.137l-.208.575-.91.794-.156.438-.13 2.218-.208.52-.702.986-.572 1.232-.39.438-1.3-.164-.832.246-1.56.767-.546.821.468 2.711-.156.685-.702.465h-1.144l-.182.63.13.657-1.326 2.054-.676.438-.416.794-.078.74.494 1.97v1.699l-.572 1.533-.702 2.684-.338.794-.546.438-1.716.465-.676-.438-1.144.055-.624.602-1.95-.137.052.712-.026 1.643-.442 2.985.026 1.26-.494.355-.13.493.442 6.326 1.274-1.287.858.027 1.716-.465 2.106-2.164.494-.219 1.82-1.834 1.3-.548.364.082.676.74.286-.055 2.548-1.37.988-.876.858-.52.936-.821 4.472-2.684.91-.986.208-1.67.546-1.287.988-.821 1.04-.137.988.547.624.931.494 1.15.832.85.962.602 2.574 1.068 1.612.438h.598l1.066-.767.364.986-.754 1.26-.702.492-1.378 1.862-.26 1.588.286 1.589 1.924 5.065.78 1.397.754 3.477.806 1.342 1.066.986.78 1.533.65 2.437.26.548.364.082.364.274 1.404-.082 1.404.164 3.796-.904.858-.41.91.027.468.876.65.52 1.248-.191.312.082.26.192.104.438.442.219 1.378-.466 1.43 1.04 1.404.22.91-.164.65-.63.104-.822.468-.657.78-.3 2.34-.083-.182-1.56-1.456-1.069-.884-.958-.91-1.315-.65-1.478.156-.849 2.47-3.697.962-1.068.858.411 1.118 1.287 2.184.986 2.132.575 3.016.192 2.392.63.728-.165.442-.63.208-.766.338-2.684.858-3.614.936-1.397zM1.91 194.702l4.862 1.068 3.38.192 2.86-.411 2.444.137 1.274-.164.104-.575-.442-.767.338-.493.442-1.15-.156-.794.676-.384.494-.602.598-.164.182 1.424 1.378-.028.78-.493.598-.027 1.066-.41 1.17-.822 1.222-.548 1.82.52-1.794.329-.39.685-1.222.958-.312-.11-2.522.548v.821l-.286.384-.702.301-1.066-.082-.78.821-.26-.903-.936.356 1.274.876 9.282-.548 5.564.548 4.706 1.04.052-1.478-.598-.247-1.248-.054-.494.137-.676-.603-1.118-.548-.026-.657 1.248-.821.182-.548-.208-.547-.624-.247-.702.164-1.326.931-.624-.602-.234-.958.182-.63.52-.493.234-.685-1.3-.41-12.714.082-.52 1.04-1.196.055-.494-.767-1.508-.794-.676.302-.468 1.725-.65.958-.234 1.26-.312.438-1.274.219-4.758-.247-.624 1.068-.598.466-1.092-.192H2.092z"/>
        <path d="M73.098 72.495l-.754.027-1.092 1.452-.546.52-1.508.301-3.744 1.89-1.43.3H61.84l-.572-.218-.286-.931-.026-1.013.104-2-.338-.876-.702-.52-.78-1.643-.286-1.944-1.3-.904-1.586-.054-6.396 1.533-2.964 1.56-.364 1.644 1.378 1.232 1.586.767 2.314.52.182.438.884.438.468 1.807.052 1.041-1.04 1.56.91 1.315.468 1.698-.572.547-1.534.52-1.456.822-1.508-.246-.676.301-.364 1.725.104 1.944-.078.904.13.876 1.014 1.588.676 1.753-.546 1.725-.624.52-.728.301-2.522.63-.754.301-.234.904v1.04l-.26.712-1.482-.11-.546-.547.338-1.917.13-1.889-1.04-1.095-.338-.904-.078-.986.13-1.944.806-1.67 2.522-1.67.026-.466.546-.657.208-1.78.702-4.655-.052-.63-1.404-.52-2.626-2.026-2.184-.685-2.262.384-5.928.191-1.144-.164-2.444-1.314-1.924-1.424-1.976-.274-.156.192.156.027.182.192-.13 2.08.858 3.26-.026.766-.468 1.369.078.767.546.63.52 1.396.858.356.182.52.13 2.19-.156.685-.754 2v1.34l-.494.96-.338.054-1.378-.849-.884.055-.416.52-1.3 3.396.338 1.068 1.716 2.546-.052.466 2.028-.439 3.458-.136 1.482.246.624.602 7.332 10.214.676.548.728.027.364 1.752-.208 2.082-.026 1.944.728 1.45 1.586-.245 1.898.328.234 2.52.182.383 2.392.93.26.52-.052 2.246.416.493.598.247.676-.055.858-.329.988-.63 1.404-.547 1.118.383 1.144.931 1.144.657 1.04 1.315.312 1.478 2.652.74 1.768-.028 1.144 1.095 1.222.274 1.3.931.468.493.936 1.37.338.136 1.274.028.832.3 1.222 1.808 1.144-.027 1.56.11 1.222-.494 2.366-.027 1.482 1.013 1.222-.274.936-.219 1.352.849.442.082.624.575.546 1.068.572 1.725.468 2.465.494 1.204 2.34 2.027 1.092 1.971 1.508 1.862.364-.465.65-1.588.312.191.052-.986.806-.602.624-.74.286-1.012-.988-.137-.676-1.561-.26-18.565.078-.712.52-.301 4.03-.192 1.3.493 2.054 2.327 1.144.63 3.042-5.148-.52-.137-.546.192-.156-.41.286-1.15-1.092-1.589.182-.958 1.196-1.014.182-1.04 1.014-1.397-.13-.821-.676-.41-.286-.63.156-.74-.468-.465-.78-.247-.442-.712.468-.438.676-.055.546-.547.052-.959-.442-4.162-1.04-.849-3.224.055-1.612-.219-1.56-.794-.988-1.506.52-.712.702-.548.598-.848 1.404-1.205.52-.822.052-.903-.65-.493-1.56-.685-.468-.575.286-.93-.052-2.082-1.196-1.205-.754.274-.364-.11-.156-2.108-.182-.493-.676-.328-.78-.055-.702.356.104 1.013-.468.41-.832-.163-.832.191-1.586.876-.676-.164-.286-.794-.572-.465-1.534.41-2.574 2.328-1.144 1.451-.442.876-.572.74-.728.11-.39-.877-.546-.794-.702-.603-.13-.876.312-2.19.286-.877.078-1.204-.364-1.315-.026-.657.104-2.163.182-.657.442-.575.416-.247-.338-1.725-1.664-3.313-.936-1.424zM31.108 177.095l-.65.055-.702.274-.598.465-1.352.438-2.678.384-1.3-.055.572-1.205.806-1.314-.598-3.286-1.274-.958-.052-1.89-.728-1.26-2.184-.081-1.274.766-.65-.438-.364-1.26-.806-.711-.91.712-.884 2.573-.858.904-1.222.055-1.196-.493-1.508-1.643-.988-2.108-.728-1.096-.91-.903-.416-1.342-.026-.548.806-2.628-.156-2.3-.806.027-.312 1.15-.234 1.314-.598-.11-.39-1.396-.104-2.902-.546-1.232-2.106-.083-2.028 1.67v.11l.442 1.068.78 1.424-.26 4.354.104 1.04.442.959.65.903.468.959-.182 1.533-.468-.137-.442.411.468 6.407-.598 1.698.104.356.884 1.068-.104.301-.754.384-.546.93.052.932.312 1.013.104 1.068-.182 2.163.988.657.104 1.479-.78.903-.26.575.182 1.616-.026.547-.468 1.67-.078.521h1.586l1.092.192.598-.466.624-1.068 4.758.247 1.274-.22.312-.437.234-1.26.65-.958.468-1.725.676-.302 1.508.794.494.767 1.196-.055.52-1.04 12.714-.082 1.3.41-.234.685-.52.493-.182.63.234.958.624.602 1.326-.93.702-.165.624.247.208.547-.182.548-1.248.821.026.657 1.118.548.676.603.494-.137 1.248.054.598.247-.052 1.478 1.378.302 1.924 1.013 1.326.082.338-.493-.026-.684-1.222-.63h-.65l-.364-.52 1.04-.274 1.118-.959.65-.821-.208-1.205v-1.862l-.416-.657-.546.301-.338.602-.936.685-2.184-.383-.624-.904.026-.794.52-1.725 1.066-1.37 1.95-1.697.416-.657.494-3.396-.338-.492-1.638.41-.936-.191-.754.493-.624-.028-.364-1.478-.286-.63-.702-.74-1.014.055-.832.63-.884.137-.156-1.178-.468-1.095-1.534.876z"/>
        <path d="M72.786 163.212l-1.092-1.998.156-1.014-.676-.356-1.742.384-.39.74-.546.246-.598-.329-.546.383-.494.904-.572.383-.936 1.205-.286.767-.364 2.464-1.196 3.313-2.288 2.3-1.222-.574-.468-1.808-.52-1.26-1.118-.41-1.534.11-2.392-.192-.806.027-1.534.603v1.04l-1.066.329-.962.602-.364 1.205-.182 1.232v1.972l-.052 1.834-.234.22-2.756-1.48-.858.302-.936.876-1.092 2.437-.832.52-.494 3.396-.416.657-1.95 1.698-1.066 1.369-.52 1.725-.026.794.624.904 2.184.383.936-.685.338-.602.546-.301.416.657v1.862l.208 1.205-.65.821-1.118.959-1.04.273.364.52h.65l1.222.63.026.685-.338.493-1.326-.082 1.17.821 1.352 1.479 2.34 1.78.676.63.754.958.962 1.56.858.439.442.493 2.548 3.943.026-.028 2.418-7.037v-.821l-.416-.74-1.014-.821-1.43-1.479-.104-.246.312-.685.104-.766.286-.548 1.04-.548.442-1.396.364-.657.494-1.37-.364-1.369-.676-1.04.156-2.026.91-1.534.78-.876.624-1.26v-.657l.624-.547h6.084l1.014.93-.598 1.397.598 1.698.468-.082 1.066-1.014.624.055.286.301.702.165.364-.137.65-1.15.26-1.67.182-.658.494-.137-.104-1.971.026-.904.286-.958.988-1.78.988-2.738-.026-.603.468-.63 1.17-1.204.208-.85-.286-1.752.234-.575-.104-.438-.65-.52.208-.904 1.638-1.314.39-.794z"/>
        <path d="M68.444 159.872l-2.366-1.342-.728-.767-.312-1.122.156-1.096.624-.93.494-.357.026-.575-1.534-.246-.78.22-.598.41-.416-.164-.026-1.096.442-.74-2.34.083-.78.301-.468.657-.104.822-.65.63-.91.164-1.404-.22-1.43-1.04-1.378.466-.442-.22-.104-.437-.26-.192-.494 2.108-.65.712-.832.466-1.014 1.588-.156 3.122-.234 1.15.104 1.341 1.742 5.532 1.534-.603.806-.027 2.392.192 1.534-.11 1.118.41.52 1.26.468 1.808 1.222.575 2.288-2.3 1.196-3.314.364-2.464.286-.767.936-1.205.572-.383.494-.904.546-.383.598.329.546-.247.39-.74z"/>
        <path d="M52.844 152.999l-1.248.192-.65-.52-.468-.877-.91-.027-.858.41-3.796.904-1.404-.164-1.404.082.156.876-.026.876-.312.493-.468.11-1.17.821-1.56 1.588-.884-.219-.806-1.533-.598-.63-.676-.301-1.3 1.698.026.575-1.092.958-1.482-.465-.364 1.177-.364 3.204-.364.63-.026.766.442.603.598.438 1.274 2.163.104.712-1.456 9.42 1.534-.877.468 1.095.156 1.178.884-.137.832-.63 1.014-.055.702.74.286.63.364 1.478.624.028.754-.493.936.191 1.638-.41.338.492.832-.52 1.092-2.437.936-.876.858-.301 2.756 1.478.234-.219.052-1.834v-1.972l.182-1.232.364-1.205.962-.602 1.066-.329v-1.04l-1.742-5.532-.104-1.341.234-1.15.156-3.122 1.014-1.588.832-.466.65-.712.494-2.108z"/>
        <path d="M41.742 152.725l-.364-.082-.26-.548-.65-2.437-.78-1.533-1.066-.986-.806-1.342-.754-3.477-.78-1.397-1.924-5.065-.286-1.589.26-1.588 1.378-1.862.702-.493.754-1.26-.364-.985-1.066.767h-.598l-1.612-.438-2.574-1.068-.962-.603-.832-.849-.494-1.15-.624-.93-.988-.548-1.04.137-.988.821-.546 1.287-.208 1.67-.91.986-4.472 2.684-.936.821-.858.52-.988.877-2.548 1.369-.286.054-.676-.739-.364-.082-1.3.548-1.82 1.834-.494.22-2.106 2.163-1.716.465-.858-.027-1.274 1.287.052.766-.832 3.04-.156 1.068.208 1.697.572 2.218-.572 1.342-.104 2.026-.26 1.643-.078 1.643-.364.931.026.11 2.028-1.67 2.106.082.546 1.232.104 2.902.39 1.397.598.11.234-1.315.312-1.15.806-.027.156 2.3-.806 2.628.026.548.416 1.342.91.903.728 1.096.988 2.108 1.508 1.643 1.196.493 1.222-.055.858-.904.884-2.573.91-.712.806.712.364 1.26.65.437 1.274-.766 2.184.082.728 1.26.052 1.889 1.274.958.598 3.286-.806 1.314-.572 1.205 1.3.055 2.678-.384 1.352-.438.598-.465.702-.274.65-.055.65-.137 1.456-9.42-.104-.711-1.274-2.163-.598-.438-.442-.603.026-.766.364-.63.364-3.204.364-1.177 1.482.465 1.092-.958-.026-.575 1.3-1.698.676.301.598.63.806 1.533.884.22 1.56-1.589 1.17-.821.468-.11.312-.493.026-.876-.156-.876zM103.128 205.272l-.104-.274-1.82-.22-.494-.629-.858-2.273.13-.903-.52-.466-.104-.63-.364-.273-.65.383-.156-.301.104-1.287.234-.575-.832-2.109-.442-.74-1.378-.547-.208-.657.598-1.944 1.196-1.56.104-1.753-1.378-.52-1.248-.63-1.17.054-.286-.164.026-.821-.182-.74-1.482 1.67-.52 1.233-.468 2.546-.702.85-1.612-.083-.182.055v.821l.078.767.624 2.547.13 1.423.39 1.287.624 2.711-.156 1.506-1.066.877-.104.575.078 1.369-.364 2.491-.884 1.37-.754 2.245-.078 1.123.65.684.702.055 1.456-1.37 1.69-.574.936.493.858-.302.858-2.08.286-1.096.806-.602.988-.274 1.014-.137 1.95.493.91-.356.884-.22 1.014-1.533 1.456-.93zM180.816 68.032l-.572-.876.702-4.026-.13-2.19-2.678-7.585-.702-4.162-.026-1.807-.156-1.123-.884-1.835-.156-1.971-.364-2.054-.286-.986-1.248-1.396-1.508-1.205-2.834 2.245-1.144-.328-.676-.52-1.612.328-.676.301-.494.575-.494 2.273-1.508 5.175-.13.85.208 1.067-.364.876-6.578 2.985-1.43.93-1.82.193-1.144 1.232-.442 1.917.936.739 1.3-.438.78-.11.754.192.338.876.338 1.862.052.876-.728 1.589-.078.848.442.712 1.066-.137.936 1.862 2.106 3.286 1.586.74 3.458.766 1.846.082 1.56.603-.078.849-.52.712-.754.547-2.392 1.096-.416 1.752.234.958-.572.439-1.612-.822-3.432.301-1.222-.602-.52-1.451.182-1.67-.026-1.671-.494-1.588-.962-1.013-1.248.356-2.782.246-1.118-.465-.858-1.287-1.352.246-1.378-.082-1.352-.685-1.3-.41-1.326-.028-1.638.794-1.092-.383-1.43.794-2.21 2.71-.832 1.507-.598.767-.754.41-1.3.083-.65 1.642-.13 1.972.078 2.163.624 1.972 1.014 1.396.156 1.807-.598 1.698-.988 1.287-.208 1.698-.728 1.56.286.685.676.41.494.549.468.657 1.248-.274 1.274.41.78 1.123.442 1.424.13 1.287v4.135l.806.63 2.496-.52 1.404.602.468 1.78.104 2.135-.156.767-.65 1.451-.104.822.52.602.78.301.988 1.342.754 1.561 1.352.52 3.068.657 3.432-.191.858-.22.78-.383.624-1.588.546-.575 1.43-.657.182-.849-.286-.903-.858-1.424 1.274-1.014 10.686 5.86 3.64 2.656.676.329 1.17-.876 2.73-.11 2.678-1.478 1.43-.302 1.508.438h1.508l.13-.63-.494-.711-.624-1.506-.364-1.616-.156-1.67-.676-1.698-4.498-3.943-.91-1.506.13-.849 2.444-1.506-.026-1.533v-3.615l-.442-1.56-1.404-1.014-1.56-.876-.26-2.054-.676-1.78-2.34-1.177.052-.74 1.118-1.888.312-.959.728-3.067.65-1.944.624-.63 1.664-.602.702-.657 1.014-1.67 2.028-1.397.858-1.232.442-.384z"/>
        <path d="M196.104 86.542l-1.508-.192-.208-.766-.156-1.862.208-5.97-.13-.876-.468-.712-2.288-2.71-1.092-1.67-1.196-1.507-1.404-1.287-2.99-1.698-2.99.931-.442.384-.858 1.232-2.028 1.396-1.014 1.67-.702.658-1.664.602-.624.63-.65 1.944-.728 3.067-.312.959-1.118 1.889-.052.74 2.34 1.177.676 1.78.26 2.053 1.56.876 1.404 1.014.442 1.56v3.615l.026 1.533-2.444 1.506-.13.85.91 1.505 4.498 3.943.676 1.698.156 1.67.364 1.616.624 1.506.494.712-.13.63 2.314.219 7.618-.356 1.976-.384 1.846-.986 4.004-2.847.806-.794.312-1.068-.13-3.45.208-2.246-1.56-1.15-1.482-2.793-.806-.63-.936-.438-.832-.684-.702-.986-.442-1.123.026-1.15 1.586-3.067-.286-2.272zM86.956 211.953l.754-2.245.884-1.37.364-2.491-.078-1.37.104-.574 1.066-.877.156-1.506-.624-2.71-.39-1.288-.13-1.423-.624-2.547-.078-.767v-.821l-.676.986-.624.246-.78-.164-.78.027-1.3.657-2.652 1.89-2.054 1.013-.572.438-.91 1.37-.598-.028-.442-.85-.546-.684-.754-.082-.494.575-.312.74-.078.903.702 1.479.078.876.26 1.013.676 1.314 1.3 1.424.702.411v1.013l-.26.986-.884 1.232-1.222 1.095-.884 1.26-1.118.958-2.132.548-.754-.137.052-.712-.442-.849.468-.903.078-.959-1.352-1.04-1.17-1.534-2.548-1.642-1.352.054-1.196.904-.13.356-.832-.028-.858-.739-.806-.055-.65.11-1.404-.082-.234.63.13.876-1.248 1.287-.39.191-.442-.41-.182-1.342.208-1.725-1.04-1.397-1.508-.876-2.418 7.037-.026.028.104.137.832 2.136.208.027 3.068-2.547.858-.3.728-.795.468-.11-.494 1.014-1.794.766-.676.712v.931l-.858-.575-.26.192-.39 1.616.078.602 1.248 2.601.754.657 2.184-.903.52-.849.598-1.917.104.849-.39 1.424.572 1.095.364.028.988-.575.884-1.068 1.196 1.013-.208.958-.234-.903-.91-.302-.286.137-.754 1.588-.598-.3-.806-.165-2.132-.11-.832.767.13 1.342 1.144 1.123.286.575 2.47.985 1.248.082-.338-.93 1.092.602.884-1.095-.13-.685.312-.575.52-.301.494.137.312-.384.39.137.936-.657-.806 1.068-.728-.027-.624.3-.13.302.052 1.205.728.93-.884.22-.754.356-.572.821-.312-.739-.39.164-1.456.028-.52.11-.104.355.468 2.328.078 1.204.234 1.287.832.055 1.04-.712.598.767-.754.137.13.41 1.43 1.233.988.383 1.534 1.123 1.248.027 1.534-1.122 1.222-.52 1.066-.055.598-.384.702-1.205.286-.164.754.794 1.482.63 3.484-2.054-.026-1.78.416-.191 1.3-.11.988-1.917.338-.136 2.834-.493.338-.247-.052-.575-.364-1.122 1.378-1.37.156-.3.286-1.589.416-1.177.572-3.012z"/>
        <path d="M88.36 191.608l-.494-1.862-.104-1.123.104-3.313.104-2.82.572-1.452.338-3.587.338-1.451-.494-1.862-.858-.41-.052-.439-.572-.657-.598.055-.858.438-1.092.246-.676-1.451-.494-1.451-.546-.575-.468-.082-.806.246-.52-.027-.624-.822-1.274-1.369-.416.11-1.43.821h-1.014l-.52-.876.234-1.15-.182-.575-.702-.274.078-.52-.364-.274-.442.11-.364-.247-.39.794-1.638 1.314-.208.904.65.52.104.438-.234.575.286 1.753-.208.849-1.17 1.205-.468.63.026.602-.988 2.738-.988 1.78-.286.958-.026.904.104 1.971-.494.137-.182.657-.26 1.67-.65 1.15-.364.138-.702-.165-.286-.3-.624-.056-1.066 1.014-.468.082-.598-1.698.598-1.396-1.014-.931h-6.084l-.624.547v.657l-.624 1.26-.78.876-.91 1.534-.156 2.026.676 1.04.364 1.37-.494 1.369-.364.657-.442 1.396-1.04.548-.286.548-.104.766-.312.685.104.246 1.43 1.479 1.014.821.416.74v.821l1.508.876 1.04 1.397-.208 1.725.182 1.342.442.41.39-.191 1.248-1.287-.13-.876.234-.63 1.404.082.65-.11.806.055.858.74.832.027.13-.356 1.196-.904 1.352-.054 2.548 1.642 1.17 1.534 1.352 1.04-.078.959-.468.903.442.85-.052.711.754.137 2.132-.548 1.118-.958.884-1.26 1.222-1.095.884-1.232.26-.986v-1.013l-.702-.41-1.3-1.425-.676-1.314-.26-1.013-.078-.876-.702-1.479.078-.904.312-.739.494-.575.754.082.546.685.442.849.598.027.91-1.369.572-.438 2.054-1.013 2.652-1.89 1.3-.657.78-.027.78.164.624-.246.676-.986zM105.338 177.15l-1.04-.082-.806.493-.702.657-.676.274-.39.438-1.248 1.944-1.066 1.177-1.82 1.507-.806 1.204-.962.877-.546-.302-.65-1.56-.728.547-.572 1.37.182.739-.026.821.286.164 1.17-.054 1.248.63 1.378.52-.104 1.752-1.196 1.56-.598 1.945.208.657 1.378.548.442.74.832 2.108-.234.575-.104 1.287.156.3.65-.382.364.273.104.63.52.466-.13.903.858 2.273.494.63 1.82.219.104.274.208.054.13.137.078.082 1.014-.191 1.066-.055 1.43 1.287 1.066-.41 1.82 1.56.572-.356-.234-1.342.13-1.314.962-1.479-.26-2.382-.676-2.136.936-3.45v-1.862l-.858-3.313.702-.52.728.082 1.43-.165.754-2.437v-1.26l-.26-1.259-.546-1.013-.91-.52-.78.219-.624.575-.884.137-.832-.466-.806-.712-.728-.821-.624-.876-.832-2.081-.234-1.04z"/>
        <path d="M122.966 187.637l-.442-1.862-.234-.438-.78.658-.988.11-.806 1.286-.832.246-1.794.137-.338.877-.208 2.19-.936 1.534-1.508-1.096-.728-1.78-1.43.165-.728-.082-.702.52.858 3.313v1.862l-.936 3.45.676 2.136.26 2.382-.962 1.479-.13 1.314.234 1.342-.572.356-1.82-1.56-1.066.41.026 1.506-.182 1.67 1.3.767 3.146.055 1.17.657.182.904.338.794.728.63.806.355.078-.657.832-1.588-.052-1.232.286-.356.78-1.397.26-1.15-.364-.821.26-.657.884-.329.806.274.442 1.177.546-.027.39-.465 1.014-.548.624-1.068h.572l.624.329.364-.685.39-1.944.91-1.56 1.222-1.48.182-1.752-.416-.767.156-.876 1.352-.904-.078-.821-.468-.685-.338-1.533-.442-.767-.754-.766-.832-1.123-.312-1.424zM132.274 87.72l-1.326-.493-.962-1.37-1.742-.246-1.196-1.177.442-.712.936-.274.286-.986-.338-3.094.39-1.999-.442-3.614-2.236-2.793-1.664-.52-1.508-.685-.546-.876-.702-.658-1.534-.63-.702-.547-.442-.849.078-.93.416-.85.026-.985-.78-.439-3.042 1.15-2.522 2.246-1.508.164-.728 1.342-1.768.849-.624-.329-.416-.684-.754-.63-.832-.438-1.586-.356-1.352.93-.364.822-.104.931-.598.383-.78-.3-1.664-.028-.338 1.369.364.685.026.739-.52.684-.702.439-.728-.11-1.144-1.396-.754-.52-1.586-.494-.026-.739.988-1.56-.26-.603-.468-.41-1.144-.028-.52-.165-1.014-.575-.338.795-.442.492-1.508 1.123-.442.657-.234.794-.416 2.328-.208.575-.988 1.04-1.82.85-2.392.629-2.392-.74-.468-.054-1.326 1.944-.962.575-.286 1.342-.312.356-1.014.383-.416.247-.442.575-.182.657-.104 2.163.026.657.364 1.315-.078 1.204-.286.877-.312 2.19.13.876.702.603.546.794.39.876.728-.11.572-.739.442-.876 1.144-1.451 2.574-2.328 1.534-.41.572.465.286.794.676.164 1.586-.876.832-.191.832.164.468-.41-.104-1.014.702-.356.78.055.676.328.182.493.156 2.109.364.11.754-.275 1.196 1.205.052 2.081-.286.931.468.575 1.56.685.65.493-.052.903-.52.822-1.404 1.205-.598.848-.702.548-.52.712.988 1.506 1.56.794 1.612.22 3.224-.056 1.04.85.442 4.161-.052.959-.546.547-.676.055-.468.438.442.712.78.247.468.465-.156.74.286.63.676.41.13.821-1.014 1.397-.182 1.04-1.196 1.014-.182.958 1.092 1.588-.286 1.15.156.411.546-.192.52.137 2.054-.246 1.768.383.468-.41.676-1.123.78.356.416.876.676-.164.598-.356.338.684.52.329.702-.055.52.493 1.482.465.728-.41.832-1.835 1.326-.246.728.794.182 1.232.702.684.858.603.26 3.04.572 2.518 1.716-1.122 1.222-2.081.598-.657.702.328 1.95.63.884 1.342 1.248 1.697.858-.11.91-1.122.702-1.424.546-1.56.78-1.123.442-1.479.104-1.588-.832-1.396-1.04-1.26-.884-1.533-.026-3.724.598-.52.052-.904.91-1.479-.208-.876.13-1.013-.026-1.972.832-3.423-.572-1.971.39-1.917 1.066-1.451.806-.438.52-.822.078-.876.208-.74-.468-.656-.494-.548-.676-.41-.286-.685.728-1.561.208-1.698zM91.324 144.319l-.624.74-.806.601-.052.986-.312-.191-.65 1.588-.364.465-1.508-1.862-1.092-1.971-2.34-2.027-.494-1.204-.468-2.465-.572-1.725-.546-1.068-.624-.575-.442-.082-1.352-.849-.936.22-.936 1.396-.858 3.614-.338 2.684-.208.766-.442.63-.728.164-2.392-.63-3.016-.191-2.132-.575-2.184-.986-1.118-1.287-.858-.41-.962 1.067-2.47 3.697-.156.849.65 1.478.91 1.315.884.958 1.456 1.068.182 1.56-.442.74.026 1.096.416.164.598-.41.78-.22 1.534.246-.026.575-.494.356-.624.931-.156 1.096.312 1.122.728.767 2.366 1.342.988.356 1.742-.384.676.356-.156 1.014 1.092 1.998 1.378 1.753.364.246.442-.11.364.275-.078.52.702.274.182.575-.234 1.15.52.876h1.014l1.43-.821.416-.11 1.274 1.37.624.82.52.028.806-.246.468.082.546.575.494 1.451.676 1.451 1.092-.246.858-.438.598-.055.572.657.052.438.858.411.494 1.862-.338 1.451-.338 3.587-.572 1.452-.104 2.82-.104 3.313.104 1.123.494 1.862v.356l.182-.055 1.612.082.702-.849.468-2.546.52-1.232 1.482-1.67.572-1.37.728-.547.65 1.56.546.302.962-.877.806-1.204 1.82-1.507 1.066-1.177 1.248-1.944.39-.438.676-.274.702-.657.806-.493 1.04.082.728.794.832.493.936.904.702.383.598-.22.052-1.177.338-1.04 2.886-1.862.91-1.78.364-2.08.052-.85.676-1.67-.546-.438-.832.137-.702-.466-.26-1.013-.338-3.094.026-3.012-.078-.931-.442-.931-.65-.767-.65-1.15-.26-1.314-.078-1.37.13-1.478-.286-.082-.364-.028-3.068.356-3.822-.41-.728.082-4.394 1.78-1.118.794-.598.684-.728.548-.702.192.026-1.068.234-1.04.676-1.562.312-3.806-.104-1.697-1.066-2.218.546-1.698.182-.876-.208.027-.754.164-.832-.11-1.326.056z"/>
        <path d="M171.716 114.636l-3.64-2.656-10.686-5.86-1.274 1.014.858 1.424.286.903-.182.849-1.43.657-.546.575-.624 1.588-.78.384-.858.219-3.432.191-3.068-.657-1.352-.52-.754-1.56-.988-1.343-.78-.3-.52-.603.104-.822.65-1.45.156-.768-.104-2.135-.468-1.78-1.404-.603-2.496.52-.806-.63V97.14l-.13-1.287-.442-1.424-.78-1.122-1.274-.411-1.248.274-.208.739-.078.876-.52.822-.806.438-1.066 1.451-.39 1.917.572 1.971-.832 3.423.026 1.972-.13 1.013.208.876-.91 1.479-.052.903-.598.52.026 3.725.884 1.533 1.04 1.26.832 1.396-.104 1.588-.442 1.479 1.274.74 1.066.93.338 1.78 1.066 1.26 1.43.328 1.482-.027 1.378-.466.598.466.39.575-.104.767-.312.903-.91 1.451-.52.603-.78.301-1.066 1.725-.364 1.068.416 1.26.546.876.156 1.095-.104 1.26.468 1.068 1.82 1.122 1.326.438h2.054l1.976-.41 1.378-.493 1.352.055 2.574 1.287 1.17.876.806 1.369 1.17.082 1.638-.137 1.56-.52 1.404-1.287 1.248-1.506 1.43-1.232 1.56-1.014.598-.63 1.118-1.642.494-.931 1.04-1.479 5.018-1.451 3.432-2.026.728-1.67-.026-.987-.286-1.615.13-1.56-.65-2.465-.338-.712-.208-.767-.234-1.944.156-1.67-.182-1.37-.468-1.259z"/>
        <path d="M130.376 123.673l-.546 1.56-.702 1.424-.91 1.123-.858.11-1.248-1.698-.884-1.342-1.95-.63-.702-.328-.598.657-1.222 2.08-1.716 1.123-.572-2.519-.26-3.04-.858-.602-.702-.684-.182-1.232-.728-.794-1.326.246-.832 1.835-.728.41-1.482-.465-.52-.493-.702.055-.52-.329-.338-.684-.598.356.052.52-.572.767-.39.848-.494 2.793-.052 1.616.104 2.547-1.014 5.257-.91 3.094-.754 1.451-.962 1.26-2.782 1.643-3.068.986-3.12.575-.182.876-.546 1.698 1.066 2.218.104 1.697-.312 3.806-.676 1.561-.234 1.04-.026 1.069.702-.192.728-.548.598-.684 1.118-.794 4.394-1.78.728-.082 3.822.41 3.068-.356.364.028.286.082 1.092.329 1.404.164 1.794.63 1.534.219.754.246 1.456.931 1.82.383 1.768.959 2.028.548.494.657 1.014.657.546.493.676.3.26-.437-.13-.904-1.04-2.683-.52-1.862.338-1.835 1.222-1.205 2.86-.41 4.394 1.752 1.586.41 2.392.083.78-.22 4.16 3.67.754-.74 3.146-2.518.442-.466-.208-1.615-.078-1.342-1.17-1.725.676-2.054.52-.274 1.586.767 1.898.465.598-.054.884-.657.598-1.123-.806-1.37-1.17-.875-2.574-1.287-1.352-.055-1.378.493-1.976.41h-2.054l-1.326-.438-1.82-1.122-.468-1.068.104-1.26-.156-1.095-.546-.876-.416-1.26.364-1.068 1.066-1.725.78-.301.52-.603.91-1.45.312-.904.104-.767-.39-.575-.598-.466-1.378.466-1.482.027-1.43-.328-1.066-1.26-.338-1.78-1.066-.93-1.274-.74zM172.34 35.118l-.442-3.669-.676-1.67-.598-.52-.728.027-.806-.22-.78-.437-.728-.055-1.404.493-.936-.192-.234-.63-.572-2.601-.572-1.013-.91-.329-.962.302-2.028.958-1.066.328-1.482.74-.39.328-.572 1.342-1.898.986-2.652-.986-.13.192-.65.52-.442.027-4.602-.63-1.56.411h-.78l-6.318-.848-.13.63-.39.191-.832 1.588-.962.904-1.04.657-1.17.301-.858-.082-.572-.74-.676.466-.494.028-1.066-.63-.598-1.178-.39-1.341-.416-.466-3.328.192-1.43-.22-1.534.055-2.314.411-.286.657-.182 1.753.052 1.67 1.144.849 1.742.027.468.603.26.767 1.118 2.3.234 1.204.39.274.598-1.78.65-1.15 1.092-.684 1.274-.274 1.3.22 1.924.684.078 1.67.182.93 1.638 1.26.286.712-.026.904.182.794 1.222.466 1.378.191.91 1.342.052 2.382-.52 1.205.312.575.936.055.884-.164.364 1.396h1.352l.754-.602 1.014.137.572 2.272-.052.904-.52 2.054-.78 1.369-.286 1.56.364.384 1.768.192.494 1.478.91 1.315 1.3.821-.208.575-1.898 2.054-.338.712-.208 1.834-.052.356 1.326.028 1.3.41 1.352.685 1.378.082 1.352-.246.858 1.287 1.118.465 2.782-.246 1.248-.356.962 1.013.494 1.588.026 1.67-.182 1.67.52 1.452 1.222.602 3.432-.3 1.612.82.572-.438-.234-.958.416-1.752 2.392-1.096.754-.547.52-.712.078-.85-1.56-.602-1.846-.082-3.458-.766-1.586-.74-2.106-3.286-.936-1.862-1.066.137-.442-.712.078-.848.728-1.589-.052-.876-.338-1.862-.338-.876-.754-.192-.78.11-1.3.438-.936-.74.442-1.916 1.144-1.232 1.82-.192 1.43-.931 6.578-2.985.364-.876-.208-1.068.13-.849 1.508-5.175.494-2.273.494-.575.676-.3 1.612-.33.676.52 1.144.33 2.834-2.246z"/>
        <path d="M143.116 66.635l.208-1.834.338-.712 1.898-2.054.208-.575-1.3-.821-.91-1.315-.494-1.478-1.768-.192-.364-.383.286-1.561.78-1.37.52-2.053.052-.904-.572-2.272-1.014-.137-.754.602h-1.352l-.364-1.396-.884.164-.936-.055-.312-.575.52-1.205-.052-2.382-.91-1.342-1.378-.191-1.222-.466-.182-.794.026-.904-.286-.711-1.638-1.26-.182-.931-.078-1.67-1.924-.685-1.3-.219-1.274.274-1.092.684-.65 1.15-.598 1.78-.39-.274-.234-1.204-1.118-2.3-1.066.027-.988.356-.52 1.095-.702 2.52-.78.876-3.796 1.67-1.664 1.369-.234 1.15.234 2.547-.104 5.449.468 1.643-.026 1.834.832 2.328.078 1.04-.962.274-1.222.712-.988.301-.676.959-.338 1.26-.156 1.259.338 1.314 1.508 1.506 1.508-.164 2.522-2.246 3.042-1.15.78.439-.026.985-.416.85-.078.93.442.849.702.548 1.534.63.702.657.546.876 1.508.684 1.664.52 2.236 2.794.442 3.614-.39 1.999.338 3.094-.286.986-.936.274-.442.712 1.196 1.177 1.742.247.962 1.369 1.326.493.442-.11.988-1.287.598-1.698-.156-1.807-1.014-1.396-.624-1.972-.078-2.163.13-1.972.65-1.642 1.3-.083.754-.41.598-.767.832-1.506 2.21-2.71 1.43-.795 1.092.383 1.638-.794z"/>
        <path d="M95.926 24.001l-.338 2.738.754 10.707.468 1.314-.078 1.56.598 1.37.312 1.314.13 1.342.364 1.534-.156.684-.806 2.328.442.63.728.41 1.196 1.15.26 1.534-.65.273-.676-.219-.39.466-.104.849-1.43 1.424-.338.219-.442-.356h-1.612l-1.274.684-.78 4.655.754 1.616-.13.849.052.93-.182 1.205-.338 1.15 1.014.575.52.165 1.144.027.468.41.26.603-.988 1.561.026.74 1.586.492.754.52 1.144 1.397.728.11.702-.439.52-.684-.026-.74-.364-.684.338-1.37 1.664.028.78.301.598-.383.104-.93.364-.822 1.352-.931 1.586.356.832.438.754.63.416.684.624.329 1.768-.85.728-1.34-1.508-1.507-.338-1.314.156-1.26.338-1.26.676-.958.988-.301 1.222-.712.962-.274-.078-1.04-.832-2.328.026-1.834-.468-1.643.104-5.45-.234-2.546.234-1.15 1.664-1.37 3.796-1.67.78-.876.702-2.519.52-1.095.988-.356 1.066-.027-.26-.767-.468-.603-1.742-.027-1.144-.849-.052-1.67.182-1.753.286-.657 2.314-.41 1.534-.055 1.43.219 3.328-.192.416.466.39 1.341.598 1.178 1.066.63.494-.028.676-.465.572.739.858.082 1.17-.301 1.04-.657.962-.904.832-1.588.39-.192.13-.63-.78-.109-5.72-1.999-.78-.52-1.014-1.753-.416-.547-.962-.85-.52-.273-1.378-.082-.884.219-2.34-2.437-.832-1.068-1.274-.548-.728-.684-1.976-1.506-5.486-.904-.728.082-.754.384-7.826 5.586-.676.246h-.754l-2.262-.493-.494.11-1.3 1.834-1.014 1.068-.468.274zM32.226 18.415l1.82-.11 1.43.274.728-.438.78-.191 1.326 1.369 1.352.93 1.482.658 1.534.548.728.575.78.438.806.082.676-.466.728-1.314.572-.22.364.576-.078.794-.312.767-.494 2.71-.13 1.041.728 1.479.494 1.615-.182 1.89-.286 1.944.676 4.162-.078 1.971-.962.603-1.482-.575-1.56.465-.78 1.616.208 9.994-.728 4.053-.962 2.437-.156 2.464.702.959.962.383.962-.712.754-1.095 4.108-2.218 1.742.027.572.658.468-.055.416-.301.13-12.213.78-3.094 3.198.602 6.604-.328 1.092-1.342-.104-2.026-.442-1.917.13-1.698 1.014-.821 1.118-1.698.806-1.533 1.092-1.014 4.862-.547 1.586-.685.624-1.396-.39-4.464.234-.711 1.352-.931 1.586-.22.832.384.546-.164.364-2.41.312-.329h1.014l1.274.356.702.877 2.106.602h2.106l1.664-1.123 1.092-1.013-1.794-3.806-3.562-4.545-3.042-3.396-1.456-.958-1.56-.411-.416.11-1.248.821-.702-.274-12.272-5.695L62.464 1l-3.198.657-.598.356-.598 1.342-.312.41-1.638.85-3.094-.165-2.21.466-1.248-.082-.494-.274-.494-.548-.494-.246-.676.082-6.89 1.971-1.17.548-.988.849-3.406 3.833-1.248.493-1.404.055v6.216z"/>
        <path d="M95.536 24.083l-1.612.028-.702-.11-.676-.301-1.482-1.451-1.3-1.753-.546-1.15-1.092 1.013-1.664 1.123h-2.106l-2.106-.602-.702-.877-1.274-.356H79.26l-.312.329-.364 2.41-.546.164-.832-.384-1.586.22-1.352.93-.234.712.39 4.464-.624 1.396-1.586.685-4.862.547-1.092 1.014-.806 1.533-1.118 1.698-1.014.821-.13 1.698.442 1.917.104 2.026-1.092 1.342-6.604.328-3.198-.602-.78 3.094-.13 12.213.91-.192 1.69.849 2.028-.63.156-.63.39-.438 1.456.274 1.222-.22.52.494.312.766 1.898.959 1.274.328 3.302-.274.702-.328 1.612.328.806.33 1.04 1.177-.104 1.752-.546 1.972.416.794.858.383 1.69 3.122.208 3.97.936 1.424 1.664 3.313.338 1.725 1.014-.383.312-.356.286-1.342.962-.575 1.326-1.944.468.055 2.392.739 2.392-.63 1.82-.849.988-1.04.208-.575.416-2.328.234-.794.442-.657 1.508-1.123.442-.492.338-.795.338-1.15.182-1.204-.052-.931.13-.85-.754-1.615.78-4.655 1.274-.684h1.612l.442.356.338-.22 1.43-1.423.104-.85.39-.465.676.22.65-.274-.26-1.534-1.196-1.15-.728-.41-.442-.63.806-2.328.156-.684-.364-1.534-.13-1.342-.312-1.314-.598-1.37.078-1.56-.468-1.314-.754-10.707.338-2.738zM210.378 21.81l-.572.028-.546-.493-.676.301-1.482-1.013-1.82.575-1.274-.356-.442-.246-1.014-.931-3.016-2.163-2.418-1.15-6.552-1.945-10.53.055-3.952-.548-2.08.22-11.076 2.792-.91.439-4.056 2.71-.39.439-.26 1.177-1.014.602-.728.822-3.666 5.175 2.652.986 1.898-.986.572-1.342.39-.328 1.482-.74 1.066-.328 2.028-.958.962-.302.91.329.572 1.013.572 2.601.234.63.936.192 1.404-.493.728.055.78.438.806.219.728-.028.598.52.676 1.671.442 3.67.468 1.697 1.508 1.205 1.248 1.396.286.986.364 2.054.156 1.971.884 1.835.156 1.123.026 1.807.702 4.162 2.678 7.585.13 2.19-.702 4.026.572.876 1.066.191 2.99-.93 2.99 1.697 1.404 1.287 1.196 1.506 1.092 1.67 2.288 2.711.468.712.13.876-.208 5.97.156 1.862.208.766 1.508.192.832-.11.832-.273.65-.63.52-.794.208-.904-.156-2.163.286-2.08 1.222-1.59 5.096-2.135 1.326-1.205.65-1.78-.13-2.19.104-2.19.442-.85.572-.739.884-1.917 2.158-3.203-.104-.959-.416-.903-.624-.85-.884-.355-.728.137-.572-.22.104-1.012 1.274-3.067.104-1.123-.546-2.601.91-8.735-.494-3.916 2.34-2.656.936-1.56.546-1.562-.208-1.615-1.196-1.013-.962-1.26-.416-1.643.468-5.038z"/>
        <path d="M51.518 58.503l-.468.055-.572-.658-1.742-.027-4.108 2.218-.754 1.095-.962.712-.962-.383-.702-.959.156-2.464.962-2.437.728-4.053-.208-9.994.78-1.616 1.56-.465 1.482.575.962-.603.078-1.971-.676-4.162.286-1.944.182-1.89-.494-1.615-.728-1.479.13-1.04.494-2.711.312-.767.078-.794-.364-.575-.572.219-.728 1.314-.676.466-.806-.082-.78-.438-.728-.575-1.534-.548-1.482-.657-1.352-.931-1.326-1.37-.78.192-.728.438-1.43-.273-1.82.11-.65 5.558-3.432 6.407-1.404 1.56-4.732 4.19-.078.274.234 6.49-.572 3.423v1.122l.546 1.89.104.903-.364.85-.728 1.259.13 1.478.884 1.315.234 1.56-.26.302-1.118.794-.468.602-1.508 3.012-.832 2.985.052.575.312.712 3.926 6.49.91.575h.026l.156-.192 1.976.274 1.924 1.424 2.444 1.314 1.144.164 5.928-.191 2.262-.384 2.184.685 2.626 2.026 1.404.52.052.63-.702 4.655-.208 1.78-.546.657-.026.466-2.522 1.67-.806 1.67-.13 1.944.078.986.338.904 1.04 1.095-.13 1.89-.338 1.916.546.548 1.482.11.26-.713v-1.04l.234-.904.754-.301 2.522-.63.728-.301.624-.52.546-1.725-.676-1.753-1.014-1.588-.13-.876.078-.904-.104-1.944.364-1.725.676-.301 1.508.246 1.456-.821 1.534-.52.572-.548-.468-1.698-.91-1.314 1.04-1.561-.052-1.04-.468-1.808-.884-.438-.182-.438-2.314-.52-1.586-.767-1.378-1.232.364-1.643 2.964-1.56 6.396-1.534 1.586.054 1.3.904.286 1.944.78 1.643.702.52.338.877-.104 1.999.026 1.013.286.93.572.22h2.184l1.43-.301 3.744-1.89 1.508-.301.546-.52 1.092-1.452.754-.027.676.493-.208-3.97-1.69-3.122-.858-.383-.416-.794.546-1.972.104-1.752-1.04-1.178-.806-.329-1.612-.328-.702.328-3.302.274-1.274-.328-1.898-.959-.312-.766-.52-.493-1.222.219-1.456-.274-.39.438-.156.63-2.028.63-1.69-.85-.91.193zM241.292 77.37l-1.274.109-3.146.821-.702-.11-1.248-.602-.728.11-.182 1.478.026 1.78-.286 1.807-1.144 3.478-.754 3.478-1.092.711-1.482-.383-1.248-.958-1.222-1.26-1.482-.767-1.872-.3-1.794.465-1.144 1.643-1.274 1.369-.806.055-.52.465-.39.931-.598.794-1.56.822-1.742.219-1.586.438-1.222 1.232-2.21 3.45-2.756 2.3-3.484-.219-.208 2.246.13 3.45-.312 1.068-.806.794-4.004 2.847-1.846.986-1.976.384 2.028 4.463.546.575 1.456.41 1.248 1.342.78 1.89.39.766.234.795-.078 1.807.754 1.533 1.378.767.91 1.342.156 1.807-2.132 5.34-.156 1.807.104.958-.182.849-1.456 1.424-5.564 7.995-1.404 1.506-1.196 1.67-.182.822.962 2.766.884 1.862.598.712.702.082 1.482-2.081.676-.356.78.41.546.767 2.132 2.382 1.066 2.985v1.725l.286 1.753.546 1.369.286 1.342 1.352-1.589 1.274-2.135-.312-1.534.156-1.643.78-1.698 2.132-3.56.806-1.04.13-.356-.338-2.08.104-1.644.884-1.506.182-1.068-.364-2.108-.078-1.177.182-1.123.468-.849.494-.22 1.274.083.728-1.095.858-.767-.624-2.574-.182-.383 2.47-.356 1.326.575.338-.11 2.21-1.396.364-.493.676-1.89.234-.136.858.082.286-.164.468-.767.234-1.095.442-4.902-.156-.958v-1.04l.442-1.233.988-2.163.208-1.944-.39-1.315-.572-.657 1.404-.849 1.326-1.67 1.508-.767 1.69-.328 1.43-.657.572-1.862.104-1.67.26-1.753.468-1.479-1.17-2.355.676-1.478-.286-2.492.39-.876.702-.329 1.716-.22 1.352-.985.598-1.287-.156-1.506.468-1.615.702-4.902.78-3.258.572-1.506 3.796-6.517zM108.016 119.976l-.416-.876-.78-.356-.676 1.122-.468.411-1.768-.383-2.054.246-3.042 5.148-1.144-.63-2.054-2.327-1.3-.493-4.03.192-.52.3-.078.713.26 18.565.676 1.56.988.138 1.326-.055.832.11.754-.165.208-.027 3.12-.575 3.068-.986 2.782-1.643.962-1.26.754-1.45.91-3.095 1.014-5.257-.104-2.547.052-1.616.494-2.793.39-.848.572-.767-.052-.52z"/>
    </g>
</svg>
